<svg width="25" height="22" viewBox="0 0 25 22" fill="none" xmlns="http://www.w3.org/2000/svg">
<path d="M22.9168 4.58329V8.24996L12.5002 11.9166L2.0835 8.24996V4.58329C2.0835 4.34018 2.19324 4.10702 2.38859 3.93511C2.58394 3.7632 2.8489 3.66663 3.12516 3.66663H21.8752C22.1514 3.66663 22.4164 3.7632 22.6117 3.93511C22.8071 4.10702 22.9168 4.34018 22.9168 4.58329ZM2.0835 10.2245V17.4166C2.0835 17.6597 2.19324 17.8929 2.38859 18.0648C2.58394 18.2367 2.8489 18.3333 3.12516 18.3333H21.8752C22.1514 18.3333 22.4164 18.2367 22.6117 18.0648C22.8071 17.8929 22.9168 17.6597 22.9168 17.4166V10.2245L12.5002 13.8911L2.0835 10.2245Z" fill="white"/>
</svg>
