<svg width="34" height="10" viewBox="0 0 34 14" fill="none" xmlns="http://www.w3.org/2000/svg">
<ellipse cx="0.817312" cy="0.751927" rx="0.817312" ry="0.751927" fill="#FAFAFA"/>
<ellipse cx="12.5868" cy="0.751927" rx="0.817312" ry="0.751927" fill="#D9D9D9"/>
<ellipse cx="24.3559" cy="0.751927" rx="0.817312" ry="0.751927" fill="#B5B5B5"/>
<ellipse cx="6.70159" cy="0.751927" rx="0.817312" ry="0.751927" fill="#FAFAFA"/>
<ellipse cx="18.4716" cy="0.751927" rx="0.817312" ry="0.751927" fill="#D9D9D9"/>
<ellipse cx="30.2402" cy="0.751927" rx="0.817312" ry="0.751927" fill="#B5B5B5"/>
<ellipse cx="3.75969" cy="0.751927" rx="0.817312" ry="0.751927" fill="#FAFAFA"/>
<ellipse cx="15.5292" cy="0.751927" rx="0.817312" ry="0.751927" fill="#D9D9D9"/>
<ellipse cx="27.2983" cy="0.751927" rx="0.817312" ry="0.751927" fill="#B5B5B5"/>
<ellipse cx="9.64397" cy="0.751927" rx="0.817312" ry="0.751927" fill="#FAFAFA"/>
<ellipse cx="21.4135" cy="0.751927" rx="0.817312" ry="0.751927" fill="#D9D9D9"/>
<ellipse cx="33.183" cy="0.751927" rx="0.817312" ry="0.751927" fill="#B5B5B5"/>
<ellipse cx="0.817312" cy="3.75974" rx="0.817312" ry="0.751927" fill="#FAFAFA"/>
<ellipse cx="12.5868" cy="3.75974" rx="0.817312" ry="0.751927" fill="#D9D9D9"/>
<ellipse cx="24.3559" cy="3.75974" rx="0.817312" ry="0.751927" fill="#B5B5B5"/>
<ellipse cx="6.70159" cy="3.75974" rx="0.817312" ry="0.751927" fill="#FAFAFA"/>
<ellipse cx="18.4716" cy="3.75974" rx="0.817312" ry="0.751927" fill="#D9D9D9"/>
<ellipse cx="30.2402" cy="3.75974" rx="0.817312" ry="0.751927" fill="#B5B5B5"/>
<ellipse cx="3.75969" cy="3.75974" rx="0.817312" ry="0.751927" fill="#FAFAFA"/>
<ellipse cx="15.5292" cy="3.75974" rx="0.817312" ry="0.751927" fill="#D9D9D9"/>
<ellipse cx="27.2983" cy="3.75974" rx="0.817312" ry="0.751927" fill="#B5B5B5"/>
<ellipse cx="9.64397" cy="3.75974" rx="0.817312" ry="0.751927" fill="#FAFAFA"/>
<ellipse cx="21.4135" cy="3.75974" rx="0.817312" ry="0.751927" fill="#D9D9D9"/>
<ellipse cx="33.183" cy="3.75974" rx="0.817312" ry="0.751927" fill="#B5B5B5"/>
<ellipse cx="0.817312" cy="6.76731" rx="0.817312" ry="0.751927" fill="#FAFAFA"/>
<ellipse cx="12.5868" cy="6.76731" rx="0.817312" ry="0.751927" fill="#D9D9D9"/>
<ellipse cx="24.3559" cy="6.76731" rx="0.817312" ry="0.751927" fill="#B5B5B5"/>
<ellipse cx="6.70159" cy="6.76731" rx="0.817312" ry="0.751927" fill="#FAFAFA"/>
<ellipse cx="18.4716" cy="6.76731" rx="0.817312" ry="0.751927" fill="#D9D9D9"/>
<ellipse cx="30.2402" cy="6.76731" rx="0.817312" ry="0.751927" fill="#B5B5B5"/>
<ellipse cx="3.75969" cy="6.76731" rx="0.817312" ry="0.751927" fill="#FAFAFA"/>
<ellipse cx="15.5292" cy="6.76731" rx="0.817312" ry="0.751927" fill="#D9D9D9"/>
<ellipse cx="27.2983" cy="6.76731" rx="0.817312" ry="0.751927" fill="#B5B5B5"/>
<ellipse cx="9.64397" cy="6.76731" rx="0.817312" ry="0.751927" fill="#FAFAFA"/>
<ellipse cx="21.4135" cy="6.76731" rx="0.817312" ry="0.751927" fill="#D9D9D9"/>
<ellipse cx="33.183" cy="6.76731" rx="0.817312" ry="0.751927" fill="#B5B5B5"/>
<ellipse cx="0.817312" cy="9.77512" rx="0.817312" ry="0.751927" fill="#FAFAFA"/>
<ellipse cx="12.5868" cy="9.77512" rx="0.817312" ry="0.751927" fill="#D9D9D9"/>
<ellipse cx="24.3559" cy="9.77512" rx="0.817312" ry="0.751927" fill="#B5B5B5"/>
<ellipse cx="6.70159" cy="9.77512" rx="0.817312" ry="0.751927" fill="#FAFAFA"/>
<ellipse cx="18.4716" cy="9.77512" rx="0.817312" ry="0.751927" fill="#D9D9D9"/>
<ellipse cx="30.2402" cy="9.77512" rx="0.817312" ry="0.751927" fill="#B5B5B5"/>
<ellipse cx="3.75969" cy="9.77512" rx="0.817312" ry="0.751927" fill="#FAFAFA"/>
<ellipse cx="15.5292" cy="9.77512" rx="0.817312" ry="0.751927" fill="#D9D9D9"/>
<ellipse cx="27.2983" cy="9.77512" rx="0.817312" ry="0.751927" fill="#B5B5B5"/>
<ellipse cx="9.64397" cy="9.77512" rx="0.817312" ry="0.751927" fill="#FAFAFA"/>
<ellipse cx="21.4135" cy="9.77512" rx="0.817312" ry="0.751927" fill="#D9D9D9"/>
<ellipse cx="33.183" cy="9.77512" rx="0.817312" ry="0.751927" fill="#B5B5B5"/>
<ellipse cx="0.817312" cy="12.7827" rx="0.817312" ry="0.751927" fill="#FAFAFA"/>
<ellipse cx="12.5868" cy="12.7827" rx="0.817312" ry="0.751927" fill="#D9D9D9"/>
<ellipse cx="24.3559" cy="12.7827" rx="0.817312" ry="0.751927" fill="#B5B5B5"/>
<ellipse cx="6.70159" cy="12.7827" rx="0.817312" ry="0.751927" fill="#FAFAFA"/>
<ellipse cx="18.4716" cy="12.7827" rx="0.817312" ry="0.751927" fill="#D9D9D9"/>
<ellipse cx="30.2402" cy="12.7827" rx="0.817312" ry="0.751927" fill="#B5B5B5"/>
<ellipse cx="3.75969" cy="12.7827" rx="0.817312" ry="0.751927" fill="#FAFAFA"/>
<ellipse cx="15.5292" cy="12.7827" rx="0.817312" ry="0.751927" fill="#D9D9D9"/>
<ellipse cx="27.2983" cy="12.7827" rx="0.817312" ry="0.751927" fill="#B5B5B5"/>
<ellipse cx="9.64397" cy="12.7827" rx="0.817312" ry="0.751927" fill="#FAFAFA"/>
<ellipse cx="21.4135" cy="12.7827" rx="0.817312" ry="0.751927" fill="#D9D9D9"/>
<ellipse cx="33.183" cy="12.7827" rx="0.817312" ry="0.751927" fill="#B5B5B5"/>
</svg>
