<svg width="14" height="18" viewBox="0 0 13 14" fill="none" xmlns="http://www.w3.org/2000/svg">
<g clip-path="url(#clip0_202_104)">
<path d="M8.87148 4.16213C8.42266 4.16047 7.97794 4.25414 7.56276 4.43776C7.14759 4.62139 6.77012 4.89138 6.45194 5.23228C6.13376 5.57318 5.88112 5.9783 5.70847 6.42446C5.53583 6.87061 5.44657 7.34905 5.4458 7.8324V11.5405C5.4458 11.691 5.50133 11.8354 5.60016 11.9418C5.699 12.0483 5.83305 12.1081 5.97283 12.1081H7.20256C7.34233 12.1081 7.47638 12.0483 7.57522 11.9418C7.67406 11.8354 7.72958 11.691 7.72958 11.5405V7.8324C7.72947 7.66049 7.763 7.49049 7.82798 7.33347C7.89297 7.17645 7.98795 7.03594 8.10674 6.9211C8.22553 6.80627 8.36546 6.71968 8.5174 6.66699C8.66935 6.61429 8.8299 6.59668 8.98859 6.61528C9.27319 6.65389 9.53474 6.80363 9.72363 7.03611C9.91252 7.26859 10.0156 7.56764 10.0134 7.87655V11.5405C10.0134 11.691 10.0689 11.8354 10.1677 11.9418C10.2666 12.0483 10.4006 12.1081 10.5404 12.1081H11.7701C11.9099 12.1081 12.044 12.0483 12.1428 11.9418C12.2416 11.8354 12.2972 11.691 12.2972 11.5405V7.8324C12.2964 7.34905 12.2071 6.87061 12.0345 6.42446C11.8618 5.9783 11.6092 5.57318 11.291 5.23228C10.9728 4.89138 10.5954 4.62139 10.1802 4.43776C9.76502 4.25414 9.3203 4.16047 8.87148 4.16213Z" fill="#FAFAFA"/>
<path d="M3.86494 4.72974H2.28386C1.99279 4.72974 1.75684 4.98384 1.75684 5.2973V11.5405C1.75684 11.854 1.99279 12.1081 2.28386 12.1081H3.86494C4.15601 12.1081 4.39197 11.854 4.39197 11.5405V5.2973C4.39197 4.98384 4.15601 4.72974 3.86494 4.72974Z" fill="#FAFAFA"/>
<path d="M3.0744 3.59455C3.80208 3.59455 4.39197 2.95928 4.39197 2.17563C4.39197 1.39199 3.80208 0.756714 3.0744 0.756714C2.34673 0.756714 1.75684 1.39199 1.75684 2.17563C1.75684 2.95928 2.34673 3.59455 3.0744 3.59455Z" fill="#FAFAFA"/>
</g>
<defs>
<clipPath id="clip0_202_104">
<rect width="13" height="14" fill="white"/>
</clipPath>
</defs>
</svg>
